<?xml version="1.0" standalone="no"?>
<!DOCTYPE svg PUBLIC "-//W3C//DTD SVG 20010904//EN"
 "http://www.w3.org/TR/2001/REC-SVG-20010904/DTD/svg10.dtd">
<svg version="1.0" xmlns="http://www.w3.org/2000/svg"
 width="512.000000pt" height="512.000000pt" viewBox="0 0 512.000000 512.000000"
 preserveAspectRatio="xMidYMid meet">
<metadata>
Created by potrace 1.11, written by Peter Selinger 2001-2013
</metadata>
<g transform="translate(0.000000,512.000000) scale(0.100000,-0.100000)"
fill="#000000" stroke="none">
<path d="M2628 2613 c-3 -960 -3 -978 -23 -1005 -37 -49 -72 -58 -224 -58
-201 0 -225 5 -274 54 -51 50 -83 99 -125 187 -18 37 -39 72 -47 79 -8 7 -15
20 -16 29 0 9 -17 45 -38 81 -21 36 -57 102 -80 148 -23 45 -46 82 -51 82 -4
0 -11 18 -15 40 -4 22 -10 40 -15 40 -10 0 -80 123 -80 140 0 6 -18 37 -40 67
-22 31 -40 64 -40 74 0 9 -20 48 -45 86 -25 37 -45 75 -46 83 0 8 -14 35 -30
60 -31 49 -34 55 -74 150 -16 36 -31 67 -35 70 -3 3 -15 30 -24 60 -10 30 -21
60 -24 67 -4 6 -7 -345 -7 -780 l0 -792 -30 -15 c-37 -18 -226 -26 -279 -12
-36 10 -35 9 54 -88 84 -91 498 -499 1204 -1188 l279 -272 1309 0 1308 0 0
1189 0 1190 -451 533 c-248 293 -459 541 -468 550 -15 16 -16 11 -12 -73 1
-50 0 -115 -4 -145 -6 -52 -8 -54 -37 -54 -16 0 -56 16 -88 34 -33 19 -103 50
-157 68 -86 29 -111 33 -203 33 -101 0 -107 -1 -169 -35 -54 -30 -66 -42 -82
-80 -28 -69 -25 -147 9 -211 17 -33 39 -59 56 -68 15 -7 36 -20 45 -30 9 -9
32 -23 51 -32 147 -69 218 -102 235 -109 33 -12 67 -30 120 -60 28 -16 64 -36
81 -44 18 -8 36 -21 40 -29 5 -7 28 -26 52 -42 23 -15 42 -33 42 -39 0 -6 18
-30 39 -54 28 -32 46 -68 71 -144 31 -97 33 -107 27 -213 -4 -79 -11 -127 -25
-161 -11 -27 -23 -66 -27 -86 -3 -20 -9 -38 -14 -40 -4 -2 -24 -27 -45 -57
-39 -57 -138 -151 -160 -151 -7 0 -23 -11 -35 -24 -13 -14 -49 -32 -80 -41
-31 -10 -65 -21 -76 -26 -60 -26 -197 -49 -301 -49 -118 0 -193 10 -289 39
-33 10 -80 25 -105 32 -50 15 -129 58 -157 86 -34 34 -44 73 -44 175 0 76 4
108 18 136 24 50 50 51 121 8 31 -20 65 -36 75 -36 9 0 17 -4 17 -8 0 -5 24
-18 53 -29 116 -45 160 -53 299 -53 152 0 191 11 262 72 91 79 100 238 19 335
-22 27 -151 113 -169 113 -7 0 -16 5 -19 10 -3 6 -14 10 -24 10 -10 0 -35 11
-56 25 -20 14 -50 29 -66 32 -16 3 -34 12 -40 19 -6 8 -19 14 -28 14 -10 0
-32 11 -51 25 -19 14 -38 25 -43 25 -37 0 -218 155 -231 198 -4 12 -11 22 -15
22 -16 0 -53 83 -67 152 -9 42 -14 111 -13 163 l3 91 -174 217 c-96 119 -180
217 -187 217 -10 0 -13 -187 -15 -977z"/>
<path d="M1490 3547 c0 -4 20 -33 45 -65 25 -31 45 -62 45 -68 0 -6 13 -29 28
-50 16 -22 32 -52 36 -67 4 -16 23 -51 42 -79 20 -28 41 -64 46 -81 14 -40 58
-117 67 -117 4 0 13 -20 20 -44 7 -25 16 -46 21 -48 4 -2 31 -48 60 -103 29
-55 72 -136 95 -180 24 -44 72 -139 108 -211 36 -73 70 -135 76 -139 6 -3 11
-16 11 -28 1 -12 15 -50 33 -84 l32 -63 -3 218 c-3 123 -9 225 -15 237 -12 23
-701 932 -728 960 -11 11 -19 16 -19 12z"/>
</g>
</svg>
